<?xml version="1.0" encoding="UTF-8"?>
<svg xmlns="http://www.w3.org/2000/svg" width="232" height="225" viewBox="0 0 232 225" fill="none">
  <g clip-path="url(#clip0_6263_116705)">
    <path d="M120.035 19.1323L88.9016 1.24833C88.6076 1.07869 88.2886 1.04476 87.9964 1.10905L87.9462 1.0769L85.0693 2.30905L86.998 5.07333V28.0948C86.998 29.5162 87.7598 30.8287 88.9948 31.5376L116.489 47.3323L118.712 50.518L120.926 49.5823C121.521 49.5037 122.032 49.0037 122.032 48.3269V22.5769C122.032 21.1537 121.27 19.8412 120.035 19.1323Z" fill="#1C2642" stroke="#1C2642" stroke-width="1.487" stroke-miterlimit="10"></path>
    <path d="M84.25 29.7464C84.2285 29.5821 84.2178 29.4179 84.2178 29.25V3.5C84.2178 2.52679 85.2753 1.91786 86.1231 2.40357L117.256 20.2875C118.491 20.9964 119.253 22.3107 119.253 23.7304V49.4804C119.253 50.4536 118.195 51.0625 117.348 50.5768L87.0767 33.1893C84.0224 35.7429 82.2783 31.9857 82.2783 31.9857C83.5707 32.3536 84.0618 30.9071 84.25 29.7464Z" fill="white" stroke="#1C2642" stroke-width="2.974" stroke-miterlimit="10"></path>
    <path d="M114.98 29.5629L99.3281 20.7021" stroke="#0077CC" stroke-width="2" stroke-miterlimit="10"></path>
    <path d="M114.98 32.752L87.9463 17.5127" stroke="#0077CC" stroke-width="2" stroke-miterlimit="10"></path>
    <path d="M114.98 36.6505L87.9463 21.0576" stroke="#0077CC" stroke-width="2" stroke-miterlimit="10"></path>
    <path d="M114.98 39.7196L87.9463 24.3643" stroke="#0077CC" stroke-width="2" stroke-miterlimit="10"></path>
    <path d="M174.642 120.675C174.663 120.672 174.687 120.668 174.706 120.663C171.754 118.864 171.754 110.204 171.754 110.204V68.8733C171.754 66.4858 170.474 64.2787 168.397 63.0858L116.063 33.0233C115.303 32.5876 114.444 32.6787 113.806 33.1037L113.802 33.1019L109.698 35.434L112.86 40.084V78.1519C112.86 80.5394 114.139 82.7465 116.215 83.9394L159.668 108.9L163.004 113.804L170.467 123.098L174.732 120.709L174.642 120.675Z" fill="#1C2642" stroke="#1C2642" stroke-width="1.487" stroke-miterlimit="10"></path>
    <path d="M111.888 35.4L164.222 65.4625C166.299 66.6554 167.577 68.8625 167.577 71.25V112.579C167.577 112.579 167.577 121.241 170.53 123.037C169.447 123.343 164.496 121.204 162.67 115.396L112.042 86.3161C109.964 85.1232 108.685 82.9161 108.685 80.5286V37.2429C108.686 35.6054 110.464 34.5821 111.888 35.4Z" fill="white" stroke="#1C2642" stroke-width="2.974" stroke-miterlimit="10"></path>
    <path d="M159.872 76.2393L134.036 61.6143" stroke="#82A5FF" stroke-width="2.974" stroke-miterlimit="10"></path>
    <path d="M159.872 81.5037L115.247 56.3501" stroke="#82A5FF" stroke-width="2.974" stroke-miterlimit="10"></path>
    <path d="M159.872 87.9375L115.247 62.2" stroke="#82A5FF" stroke-width="2.974" stroke-miterlimit="10"></path>
    <path d="M159.872 93.0072L115.247 67.6589" stroke="#82A5FF" stroke-width="2.974" stroke-miterlimit="10"></path>
    <path d="M159.872 98.2733L115.247 73.1179" stroke="#82A5FF" stroke-width="2.974" stroke-miterlimit="10"></path>
    <path d="M159.872 104.707L115.247 78.9678" stroke="#82A5FF" stroke-width="2.974" stroke-miterlimit="10"></path>
    <path d="M179.732 56.2249C180.13 56.4178 180.609 56.2517 180.8 55.8571L186.065 45.0589C186.258 44.6624 186.092 44.1857 185.696 43.9946C185.298 43.8017 184.819 43.9678 184.627 44.3624L179.363 55.1607C179.169 55.5553 179.334 56.0321 179.732 56.2249ZM171.27 54.4196C171.704 54.4982 172.121 54.2107 172.2 53.7785L172.91 49.8999C172.989 49.4678 172.7 49.0517 172.266 48.9732C171.833 48.8946 171.415 49.1821 171.336 49.6142L170.626 53.4928C170.548 53.9267 170.836 54.341 171.27 54.4196ZM172.603 47.7821C173.037 47.8607 173.455 47.5732 173.534 47.141L174 44.5946C174.079 44.1625 173.79 43.7464 173.356 43.6678C172.923 43.5892 172.505 43.8767 172.426 44.3089L171.96 46.8553C171.879 47.2875 172.168 47.7017 172.603 47.7821ZM184.95 61.6553C185.197 62.0196 185.694 62.1142 186.061 61.8678L189.372 59.6357C189.738 59.3892 189.833 58.8946 189.585 58.5285C189.338 58.1642 188.841 58.0696 188.474 58.316L185.163 60.5482C184.799 60.7964 184.703 61.291 184.95 61.6553ZM36.153 44.9482C36.5724 44.8107 36.8001 44.3607 36.6638 43.9428L32.9033 32.5374C32.7652 32.1196 32.3135 31.891 31.8941 32.0285C31.4747 32.166 31.2452 32.616 31.3833 33.0339L35.1438 44.4392C35.2818 44.8589 35.7335 45.0857 36.153 44.9482ZM28.8147 49.5178C29.1821 49.2732 29.2807 48.7785 29.0351 48.4124L26.8358 45.1339C26.5902 44.7678 26.0937 44.6696 25.7263 44.9142C25.3588 45.1589 25.2602 45.6535 25.5058 46.0196L27.7051 49.2982C27.9525 49.6642 28.449 49.7624 28.8147 49.5178ZM25.1366 43.8267C25.504 43.5821 25.6026 43.0874 25.357 42.7214L23.9123 40.5696C23.6668 40.2035 23.1702 40.1053 22.8028 40.3499C22.4353 40.5946 22.3368 41.0892 22.5823 41.4553L24.027 43.6071C24.2726 43.9714 24.7691 44.0696 25.1366 43.8267ZM43.6956 45.2321C44.1276 45.3214 44.5524 45.0464 44.642 44.616L45.4612 40.7178C45.5508 40.2874 45.2748 39.8642 44.8428 39.7749C44.4108 39.6857 43.986 39.9607 43.8964 40.391L43.0772 44.2892C42.9858 44.7196 43.2618 45.1428 43.6956 45.2321Z" fill="#0077CC"></path>
    <path d="M208.193 111.914C208.439 112.034 208.636 112.512 208.634 112.986L208.625 117.605L211.02 118.77C211.265 118.889 211.462 119.366 211.462 119.839C211.462 120.312 211.262 120.598 211.016 120.48L208.621 119.316L208.612 123.936C208.612 124.407 208.413 124.695 208.168 124.575C207.922 124.455 207.725 123.975 207.725 123.505L207.734 118.886L205.339 117.721C205.096 117.603 204.897 117.123 204.898 116.65C204.9 116.177 205.099 115.893 205.343 116.011L207.738 117.175L207.747 112.555C207.748 112.08 207.947 111.795 208.193 111.914Z" fill="#0077CC"></path>
    <path d="M60.3083 3.75C60.4786 3.83215 60.6148 4.16429 60.6131 4.49286L60.6077 7.69286L62.2657 8.49822C62.436 8.58036 62.5722 8.91072 62.5722 9.23929C62.5722 9.56608 62.4342 9.76608 62.2639 9.68215L60.6059 8.87679L60.6005 12.0768C60.6005 12.4036 60.4625 12.6018 60.2922 12.5196C60.1219 12.4375 59.9857 12.1054 59.9857 11.7786L59.9911 8.57857L58.3331 7.77322C58.1646 7.69108 58.0265 7.35893 58.0283 7.03036C58.0283 6.70357 58.1664 6.50536 58.3366 6.5875L59.9947 7.39286L60 4.19286C60 3.86607 60.1381 3.66786 60.3083 3.75Z" stroke="#0077CC" stroke-width="2" stroke-miterlimit="10"></path>
    <path d="M61.4141 43.8875L64.5204 47.0053L62.235 50.291L61.4141 43.8875ZM61.7726 44.7535L62.3694 49.4089L64.031 47.0214L61.7726 44.7535Z" fill="#0077CC"></path>
    <path d="M173.281 154.566L176.029 157.323L174.007 160.23L173.281 154.566ZM173.597 155.332L174.125 159.45L175.595 157.339L173.597 155.332Z" fill="#0077CC"></path>
    <path d="M43.2277 82.7982L43.1398 82.7464L92.2728 68.7161L139.486 137.739C141.167 139.773 142.132 142.35 142.132 145.068V219.796C142.132 222.623 139.061 224.389 136.604 222.979L46.2515 171.079C42.6666 169.02 40.4565 165.209 40.4565 161.086V86.3571C40.4565 84.5625 41.6951 83.1964 43.2277 82.7982Z" fill="#1C2642" stroke="#1C2642" stroke-width="1.487" stroke-miterlimit="10"></path>
    <path d="M36.0133 170.484L126.365 222.386C128.823 223.798 131.893 222.03 131.893 219.203V144.475C131.893 140.352 129.685 136.543 126.098 134.482L35.7462 82.582C33.2887 81.1695 30.2183 82.9373 30.2183 85.7641V160.493C30.2201 164.614 32.4284 168.425 36.0133 170.484Z" fill="white" stroke="#1C2642" stroke-width="2.974" stroke-miterlimit="10"></path>
    <path d="M82.0362 68.125L32.9033 82.1536L130.19 138.523L82.0362 68.125Z" fill="white" stroke="#1C2642" stroke-width="2.974" stroke-miterlimit="10"></path>
    <path d="M42.6863 142.203L120.85 187.104C122.976 188.325 125.632 186.796 125.632 184.352V119.703C125.632 116.137 123.721 112.841 120.619 111.059L42.4551 66.1588C40.3293 64.9374 37.6729 66.466 37.6729 68.9106V133.559C37.6729 137.127 39.5836 140.423 42.6863 142.203Z" fill="#0077CC" stroke="#1C2642" stroke-width="2.974" stroke-miterlimit="10"></path>
    <path d="M115.048 124.859L75.6895 102.58" stroke="white" stroke-width="2.974" stroke-miterlimit="10"></path>
    <path d="M115.048 132.878L47.0654 94.5605" stroke="white" stroke-width="2.974" stroke-miterlimit="10"></path>
    <path d="M115.048 142.682L47.0654 103.471" stroke="white" stroke-width="2.974" stroke-miterlimit="10"></path>
    <path d="M115.048 150.404L47.0654 111.789" stroke="white" stroke-width="2.974" stroke-miterlimit="10"></path>
    <path d="M115.048 158.425L47.0654 120.105" stroke="white" stroke-width="2.974" stroke-miterlimit="10"></path>
    <path d="M115.048 168.227L47.0654 129.018" stroke="white" stroke-width="2.974" stroke-miterlimit="10"></path>
    <path d="M32.986 82.207L81.0578 152.484L130.187 138.455C131.282 140.239 131.895 142.312 131.895 144.475V219.203C131.895 222.03 128.825 223.796 126.367 222.386L36.0152 170.484C32.4303 168.425 30.2202 164.614 30.2202 160.491V85.7624C30.2202 83.9713 31.4552 82.6052 32.986 82.207Z" fill="white" stroke="#1C2642" stroke-width="2.974" stroke-miterlimit="10"></path>
    <path d="M37.8432 160.634L81.8909 185.78C82.814 186.307 83.9648 185.643 83.9648 184.582V178.128C83.9648 177.187 83.4593 176.318 82.6402 175.85L38.5924 150.705C37.6693 150.178 36.5186 150.843 36.5186 151.903V158.357C36.5186 159.296 37.024 160.166 37.8432 160.634Z" fill="#0077CC" stroke="#1C2642" stroke-width="2.974" stroke-miterlimit="10"></path>
    <path d="M117.115 187.53C117.584 188.736 117.844 190.021 117.893 191.382C117.934 192.537 117.844 193.525 117.622 194.346C117.401 195.168 117.091 195.766 116.693 196.15C116.295 196.53 115.849 196.645 115.354 196.493C115.12 196.42 114.908 196.287 114.718 196.103C114.528 195.916 114.372 195.68 114.241 195.403C114.112 195.123 114.023 194.812 113.969 194.466C113.842 194.802 113.687 195.073 113.506 195.277C113.325 195.477 113.117 195.609 112.886 195.671C112.655 195.734 112.4 195.721 112.124 195.636C111.687 195.5 111.293 195.207 110.94 194.757C110.586 194.307 110.301 193.748 110.085 193.077C109.866 192.409 109.744 191.673 109.717 190.875C109.69 190.098 109.782 189.37 109.991 188.686C110.201 188.002 110.513 187.482 110.923 187.12C111.338 186.759 111.834 186.668 112.417 186.848C112.818 186.973 113.168 187.228 113.462 187.623C113.756 188.014 113.978 188.536 114.121 189.18L114.239 187.716L115.426 188.084L115.032 192.682C115.005 192.955 114.987 193.202 114.978 193.421C114.969 193.645 114.965 193.821 114.969 193.953C114.98 194.25 115.03 194.484 115.118 194.664C115.206 194.846 115.329 194.959 115.483 195.007C115.74 195.086 115.969 194.961 116.174 194.634C116.38 194.305 116.536 193.827 116.645 193.193C116.754 192.562 116.794 191.827 116.765 190.986C116.726 189.895 116.523 188.893 116.152 187.986C115.783 187.078 115.29 186.311 114.673 185.686C114.057 185.061 113.358 184.625 112.578 184.384C111.884 184.17 111.262 184.159 110.712 184.348C110.162 184.537 109.701 184.9 109.325 185.432C108.95 185.97 108.672 186.639 108.489 187.453C108.306 188.264 108.233 189.184 108.271 190.214C108.315 191.496 108.529 192.682 108.911 193.768C109.291 194.857 109.816 195.78 110.484 196.536C111.149 197.291 111.94 197.805 112.845 198.086C113.205 198.196 113.567 198.275 113.935 198.32C114.302 198.362 114.627 198.368 114.908 198.328L114.693 200.095C114.433 200.107 114.141 200.084 113.827 200.027C113.51 199.966 113.184 199.884 112.845 199.778C111.802 199.455 110.854 198.843 109.999 197.941C109.142 197.037 108.45 195.896 107.921 194.516C107.394 193.137 107.1 191.566 107.037 189.807C106.991 188.495 107.098 187.341 107.364 186.345C107.625 185.35 108.007 184.537 108.509 183.907C109.009 183.275 109.597 182.845 110.275 182.625C110.952 182.405 111.68 182.414 112.454 182.653C113.49 182.975 114.41 183.566 115.211 184.43C116.009 185.289 116.645 186.325 117.115 187.53ZM113.75 192.778C113.87 192.33 113.922 191.837 113.903 191.298C113.877 190.612 113.743 190.025 113.496 189.537C113.248 189.05 112.945 188.748 112.589 188.637C112.239 188.528 111.94 188.586 111.694 188.798C111.445 189.011 111.259 189.336 111.135 189.775C111.011 190.216 110.961 190.718 110.981 191.289C111.006 191.986 111.139 192.58 111.381 193.071C111.623 193.562 111.938 193.862 112.327 193.984C112.669 194.089 112.963 194.028 113.203 193.8C113.449 193.568 113.63 193.228 113.75 192.778Z" fill="#0077CC"></path>
  </g>
  <defs>
    <clipPath id="clip0_6263_116705">
      <rect width="190" height="225" fill="white" transform="translate(22)"></rect>
    </clipPath>
  </defs>
</svg>
